<svg width="200" height="200" viewBox="0 0 200 200" fill="none" xmlns="http://www.w3.org/2000/svg">
<g filter="url(#filter0_ii_440_2672)">
<circle cx="100" cy="100" r="100" fill="black" style="fill:black;fill-opacity:1;"/>
</g>
<g clip-path="url(#clip0_440_2672)">
<path d="M75.7246 99.1154C75.7246 94.5906 76.8385 90.7217 79.0661 87.5087C81.2938 84.2958 84.3406 81.8701 88.2065 80.2306C91.7443 78.7223 96.102 77.641 101.279 76.9842C103.047 76.7878 105.93 76.5255 109.927 76.197V74.525C109.927 70.3285 109.469 67.5092 108.551 66.0661C107.175 64.0982 105.014 63.1155 102.064 63.1155H101.279C99.1162 63.3119 97.2484 64.0004 95.6761 65.1803C94.1039 66.361 93.0877 67.9996 92.6294 70.0987C92.3672 71.4098 91.7126 72.1635 90.6638 72.3607L79.3609 70.9836C78.247 70.7212 77.6901 70.1313 77.6901 69.213C77.6901 69.0166 77.7227 68.7868 77.7878 68.5253C78.9016 62.6894 81.637 58.3617 85.9947 55.5415C90.3515 52.7231 95.4465 51.1487 101.279 50.8203H103.736C111.204 50.8203 117.036 52.7548 121.231 56.6236C121.888 57.2823 122.496 57.9884 123.049 58.7377C123.604 59.4914 124.047 60.1641 124.374 60.754C124.702 61.344 124.998 62.1972 125.259 63.311C125.522 64.4266 125.717 65.197 125.85 65.6223C125.98 66.0485 126.079 66.9668 126.144 68.3774C126.209 69.787 126.242 70.6226 126.242 70.885V94.6883C126.242 96.3929 126.487 97.9505 126.979 99.3602C127.471 100.771 127.947 101.787 128.403 102.409C128.862 103.032 129.617 104.033 130.665 105.408C131.058 106 131.254 106.525 131.254 106.984C131.254 107.508 130.993 107.965 130.467 108.36C125.029 113.082 122.081 115.64 121.622 116.033C120.836 116.623 119.886 116.688 118.771 116.23C117.855 115.442 117.053 114.689 116.364 113.967C115.677 113.246 115.185 112.722 114.89 112.393C114.596 112.067 114.12 111.426 113.465 110.476C112.811 109.525 112.349 108.884 112.089 108.558C108.42 112.558 104.817 115.05 101.279 116.033C99.0502 116.688 96.2982 117.017 93.0226 117.017C87.9769 117.017 83.833 115.458 80.59 112.344C77.3461 109.229 75.7246 104.819 75.7246 99.1154ZM92.6294 97.1475C92.6294 99.7053 93.269 101.754 94.5456 103.295C95.824 104.836 97.5431 105.606 99.7057 105.606C99.9028 105.606 100.181 105.574 100.542 105.509C100.9 105.442 101.147 105.409 101.279 105.409C104.03 104.689 106.159 102.919 107.666 100.099C108.388 98.853 108.928 97.4927 109.289 96.017C109.649 94.5421 109.846 93.3447 109.878 92.4263C109.911 91.5088 109.928 90.0005 109.928 87.9023V85.4431C106.127 85.4431 103.245 85.7055 101.28 86.2303C95.5116 87.8689 92.6294 91.5079 92.6294 97.1475Z" fill="white" style="fill:white;fill-opacity:1;"/>
<path d="M133.907 128.821C134.039 128.558 134.235 128.296 134.498 128.033C136.136 126.918 137.708 126.165 139.215 125.772C141.705 125.117 144.13 124.756 146.488 124.69C147.144 124.623 147.766 124.657 148.356 124.787C151.305 125.049 153.072 125.542 153.663 126.263C153.925 126.657 154.055 127.247 154.055 128.033V128.722C154.055 131.016 153.433 133.722 152.189 136.836C150.943 139.95 149.207 142.46 146.979 144.362C146.652 144.623 146.357 144.753 146.095 144.753C145.963 144.753 145.832 144.721 145.702 144.656C145.309 144.459 145.21 144.098 145.406 143.574C147.831 137.869 149.043 133.902 149.043 131.671C149.043 130.951 148.912 130.426 148.651 130.098C147.995 129.311 146.161 128.918 143.147 128.918C142.031 128.918 140.722 128.983 139.215 129.114C137.578 129.312 136.071 129.508 134.694 129.706C134.301 129.706 134.039 129.639 133.906 129.508C133.776 129.377 133.743 129.246 133.809 129.114C133.809 129.05 133.841 128.951 133.907 128.821ZM46.1405 127.15C46.4687 126.625 46.9922 126.592 47.7136 127.05C64.094 136.559 81.9164 141.313 101.179 141.313C114.023 141.313 126.701 138.919 139.215 134.132C139.542 134.002 140.018 133.805 140.64 133.542C141.263 133.281 141.705 133.083 141.966 132.952C142.949 132.559 143.719 132.756 144.276 133.542C144.835 134.33 144.654 135.05 143.737 135.705C142.556 136.559 141.049 137.542 139.215 138.657C133.581 142.002 127.289 144.591 120.344 146.428C113.4 148.265 106.617 149.181 100 149.181C89.7784 149.181 80.1137 147.395 71.0067 143.821C61.8989 140.247 53.7412 135.213 46.5338 128.723C46.1405 128.395 45.9443 128.066 45.9443 127.739C45.9443 127.542 46.0094 127.345 46.1405 127.15Z" fill="#FF9900" style="fill:#FF9900;fill:color(display-p3 1.0000 0.6000 0.0000);fill-opacity:1;"/>
</g>
<defs>
<filter id="filter0_ii_440_2672" x="-1.12518" y="-1.12518" width="202.25" height="202.25" filterUnits="userSpaceOnUse" color-interpolation-filters="sRGB">
<feFlood flood-opacity="0" result="BackgroundImageFix"/>
<feBlend mode="normal" in="SourceGraphic" in2="BackgroundImageFix" result="shape"/>
<feColorMatrix in="SourceAlpha" type="matrix" values="0 0 0 0 0 0 0 0 0 0 0 0 0 0 0 0 0 0 127 0" result="hardAlpha"/>
<feMorphology radius="1.50023" operator="dilate" in="SourceAlpha" result="effect1_innerShadow_440_2672"/>
<feOffset dx="1.40647" dy="3.188"/>
<feGaussianBlur stdDeviation="1.31271"/>
<feComposite in2="hardAlpha" operator="arithmetic" k2="-1" k3="1"/>
<feColorMatrix type="matrix" values="0 0 0 0 1 0 0 0 0 1 0 0 0 0 1 0 0 0 0.3 0"/>
<feBlend mode="normal" in2="shape" result="effect1_innerShadow_440_2672"/>
<feColorMatrix in="SourceAlpha" type="matrix" values="0 0 0 0 0 0 0 0 0 0 0 0 0 0 0 0 0 0 127 0" result="hardAlpha"/>
<feMorphology radius="1.50023" operator="dilate" in="SourceAlpha" result="effect2_innerShadow_440_2672"/>
<feOffset dx="-1.40647" dy="-3.188"/>
<feGaussianBlur stdDeviation="1.31271"/>
<feComposite in2="hardAlpha" operator="arithmetic" k2="-1" k3="1"/>
<feColorMatrix type="matrix" values="0 0 0 0 1 0 0 0 0 1 0 0 0 0 1 0 0 0 0.2 0"/>
<feBlend mode="normal" in2="effect1_innerShadow_440_2672" result="effect2_innerShadow_440_2672"/>
</filter>
<clipPath id="clip0_440_2672">
<rect width="108.111" height="98.3591" fill="white" style="fill:white;fill-opacity:1;" transform="translate(45.9443 50.8203)"/>
</clipPath>
</defs>
</svg>